<?xml version="1.0" encoding="UTF-8" standalone="no"?>
<svg
   id="ezBb8JruFAa1"
   viewBox="0 0 400.00001 200"
   shape-rendering="geometricPrecision"
   text-rendering="geometricPrecision"
   project-id="c2c816b50a0544439102ae28af9421e5"
   export-id="54bf932b2d2a4881bffacd7810e37a31"
   cached="false"
   version="1.1"
   sodipodi:docname="LAB logo con cuore puzzle 2.svg"
   width="400"
   height="200"
   inkscape:version="1.4 (86a8ad7, 2024-10-11)"
   xmlns:inkscape="http://www.inkscape.org/namespaces/inkscape"
   xmlns:sodipodi="http://sodipodi.sourceforge.net/DTD/sodipodi-0.dtd"
   xmlns="http://www.w3.org/2000/svg"
   xmlns:svg="http://www.w3.org/2000/svg">
  <defs
     id="defs22" />
  <sodipodi:namedview
     id="namedview22"
     pagecolor="#ffffff"
     bordercolor="#000000"
     borderopacity="0.25"
     inkscape:showpageshadow="2"
     inkscape:pageopacity="0.0"
     inkscape:pagecheckerboard="0"
     inkscape:deskcolor="#d1d1d1"
     inkscape:zoom="1.2617607"
     inkscape:cx="420.84049"
     inkscape:cy="297.60001"
     inkscape:window-width="1920"
     inkscape:window-height="1009"
     inkscape:window-x="1272"
     inkscape:window-y="-8"
     inkscape:window-maximized="1"
     inkscape:current-layer="ezBb8JruFAa1" />
  <path
     d="m 243.29601,32.088357 -20.42712,15.3037 -3.85698,13.73912 15.70452,16.42699 -8.89558,13.34659 0.89185,8.55943 7.28591,6.330253 9.2974,-1.15915 q 6.51596,-11.412223 6.67235,-11.412223 0.1564,0 11.53556,1e-5 l 7.00182,11.412213 6.12445,5.45083 19.63991,-10.621933 0.3091,-8.55943 -9.55434,-5.75332 -8.01653,-8.80498 8.01653,-14.95041 10.04796,-0.26488 7.89118,7.34893 q -1.47191,7.86636 0.53804,7.86636 c 2.00994,0 10.40868,3.7278 10.40868,0 q 0,-3.72781 0,-15.21529 l -10.40868,-19.94962 -13.24686,-12.18843 -26.52021,-4.89611 q -20.43896,7.54918 -20.43896,7.99135 z"
     fill="#c396ff"
     stroke="#3f5787"
     stroke-width="1.68384"
     id="path1" />
  <path
     d="m 274.6302,115.31197 q 10.39467,-10.67669 10.39467,-10.67669 c 0,0 10.04796,-11.985323 10.04796,-12.571373 q 0,-0.58606 -10.04796,-5.84893 -6.71023,-13.59633 -6.55984,-13.59633 0.15039,0 6.55984,-11.48748 h 14.1124 l 4.36477,9.27576 q 2.00995,8.64152 2.00995,7.70441 0,-0.93712 19.59622,-1.76488 l 26.0587,8.80497 18.657,19.483853 6.54001,23.12749 -11.06595,25.32905 q -14.13106,13.11235 -14.13106,11.90144 0,-1.21091 -18.88737,-10.15781 l -14.76077,-7.9749 7.58944,-7.77341 3.4039,-13.49199 -10.99334,-10.28318 -14.01673,2.85659 q -9.23193,9.78133 -9.23193,9.59421 c 0,-0.18713 -20.22947,-12.45079 -19.63991,-12.4508 z"
     fill="#8b8aff"
     stroke="#3f5787"
     stroke-width="1.68384"
     id="path2" />
  <path
     d="m 268.50575,113.06222 q -7.00181,16.75904 -7.00181,16.75904 -10e-6,0 13.12626,9.26589 l -8.16887,18.44885 -15.23978,-4.44418 -2.84389,-7.4434 q -17.95789,16.92302 -17.95789,18.13393 0,1.21091 -1.20849,10.92614 19.65467,-3.30734 19.41053,-3.00474 -0.24415,0.3026 50.9998,1.42239 l 32.65794,-2.16146 q 15.86767,-4.7605 15.86767,-5.97142 0,-1.21091 -22.65016,-11.90144 l -8.91619,-10.23597 10.75654,-9.095 q -1.1747,-8.16569 0,-8.16569 1.1747,0 -9.81864,-10.66861 l -14.01673,3.24202 q -8.42921,7.92235 -8.42921,7.92235 0,0 -16.45741,-7.92235 -4.28294,-8.08246 -3.98522,-8.08246 c 0.29771,0 -6.12444,2.97611 -6.12445,2.97611 z"
     fill="#77d99c"
     stroke="#3f5787"
     stroke-width="1.68384"
     id="path3" />
  <path
     d="m 219.01192,61.131167 q 0,0.26488 -6.17397,31.48712 l 8.44112,46.468863 6.18805,23.6599 15.8289,-13.6948 5.1955,-4.7217 7.18953,10.5049 h 12.82471 l 6.714,-12.43815 -8.75844,-10.47235 -4.30331,-2.10369 12.47219,-19.73516 -17.95502,-18.123953 -7.96,1.26093 -5.41917,11.412213 -13.17585,-1e-5 q -5.55249,-11.808153 -5.55249,-12.016993 0,-0.20884 9.43094,-16.27183 -14.98669,-15.21529 -14.98669,-15.21529 z"
     fill="#85fcff"
     stroke="#3f5787"
     stroke-width="1.68384"
     id="path4" />
  <g
     transform="translate(-454.78309,9.258847)"
     id="g22">
    <path
       d="M 0,0 0.176067,95.9588"
       transform="rotate(-0.06852579,57905.561,-402350.41)"
       fill="none"
       stroke="#000000"
       stroke-width="13.6032"
       stroke-linecap="round"
       stroke-miterlimit="1.92"
       id="path5" />
    <path
       d="M 0,0.263972 73.804,0"
       transform="rotate(-0.06852579,138063.54,-403999.17)"
       fill="none"
       stroke="#000000"
       stroke-width="13.6032"
       stroke-linecap="round"
       stroke-miterlimit="1.92"
       id="path6" />
    <path
       d="M 0,110.947 53.0615,0"
       transform="matrix(0.854369,0,0,0.85472,573.544,68.922)"
       fill="none"
       stroke="#000000"
       stroke-width="13.6032"
       stroke-linecap="round"
       stroke-miterlimit="1.92"
       id="path7" />
    <path
       d="M 0,0 56.947,110.592"
       transform="matrix(0.854369,0,0,0.85472,619.449,69.3421)"
       fill="none"
       stroke="#000000"
       stroke-width="13.6032"
       stroke-linecap="round"
       stroke-miterlimit="1.92"
       id="path8" />
    <path
       d="M 0,0 110.33,0.105589"
       transform="matrix(0.854369,0,0,0.85472,574.281,164.435)"
       fill="none"
       stroke="#000000"
       stroke-width="13.6032"
       stroke-linecap="round"
       stroke-miterlimit="1.92"
       id="path9" />
    <path
       d="m 101.323,48.5242 c -0.089,0 0.443,-4.1879 0.46,-4.6716 C 102.102,34.4057 95.5663,24.0005 89.6518,17.0871 66.8237,-9.596 29.8693,-3.11445 11.0757,23.2976 -6.90148,48.5621 0.620691,82.4708 8.44115,109.53 c 2.38905,8.266 4.89515,16.886 6.18805,25.391 0.3983,2.62 1.706,15.504 1.3785,13.301"
       transform="translate(667.621,14.8356)"
       fill="none"
       stroke="#000000"
       stroke-width="9.6"
       stroke-linecap="round"
       stroke-linejoin="bevel"
       id="path10" />
    <path
       d="M 78.5713,0 C 76.236,2.18786 77.0011,1.21623 79.1599,1.01991 94.0426,-0.333477 109.937,0.981645 122.725,8.61318 146.103,22.5643 155.273,47.2052 141.382,70.3223 121.861,102.807 79.973,97.3802 46.486,95.4681 35.8742,94.8622 25.4749,94.5294 14.8541,95.1655 10.0808,95.4513 -3.33314,99.9075 0.769366,97.669"
       transform="translate(683.225,67.2794)"
       fill="none"
       stroke="#000000"
       stroke-width="9.6"
       stroke-linecap="round"
       stroke-linejoin="bevel"
       id="path11" />
    <path
       d="M 1.05025,0 C -1.31386,3.18999 0.859863,15.5752 2.23947,11.852"
       transform="translate(683.853,149.763)"
       fill="none"
       stroke="#000000"
       stroke-width="7.2384"
       stroke-linecap="square"
       stroke-linejoin="bevel"
       id="path12" />
    <path
       d="M 25.9571,17.6496 C 30.1993,0.042102 9.33218,-6.22481 1.45812,7.34915 -2.6506,14.4321 2.68696,23.7564 8.01796,27.0371 c 2.92294,1.7988 12.63334,4.4306 9.47824,3.3098"
       transform="translate(731.79,51.8721)"
       fill="none"
       stroke="#000000"
       stroke-width="9.6"
       stroke-linecap="round"
       stroke-linejoin="bevel"
       id="path13" />
    <path
       d="M 32.6923,0 C 36.9616,12.7513 12.3069,15.9038 6.61883,22.9644 2.80016,27.7045 -1.06929,45.8502 0.2711,39.9628"
       transform="translate(716.67,82.7033)"
       fill="none"
       stroke="#000000"
       stroke-width="9.6"
       stroke-linecap="round"
       stroke-linejoin="bevel"
       id="path14" />
    <path
       d="m 0,0 c 24.0224,0 21.0914,31.4432 43.4522,35.1662 1.1434,0.1904 6.0232,0.7598 5.2746,-1.8329"
       transform="translate(705.601,83.1506)"
       fill="none"
       stroke="#000000"
       stroke-width="9.6"
       stroke-linecap="round"
       stroke-linejoin="round"
       id="path15" />
    <path
       d="M 12.1481,0.120542 C 8.8497,-0.895473 4.2879,4.78166 2.97926,7.00683 -10.4181,29.7873 25.7124,35.1702 25.7124,15.5116"
       transform="rotate(-5.214924,1110.2121,-7407.6578)"
       fill="none"
       stroke="#000000"
       stroke-width="9.6"
       stroke-linecap="round"
       stroke-linejoin="bevel"
       id="path16" />
    <path
       d="m 0,0 c 1.41558,3.29204 8.4953,5.53419 10.8353,9.01088 1.5338,2.27902 6.7733,8.40282 4.1514,7.04782"
       transform="translate(673.795,52.1372)"
       fill="none"
       stroke="#000000"
       stroke-width="9.6"
       stroke-linecap="round"
       stroke-linejoin="bevel"
       id="path17" />
    <path
       d="m 0.271891,10.1943 c -0.866529,0 0.599785,4.7982 0.774519,5.0971 C 16.5606,41.8297 40.7347,0 15.0175,0"
       transform="translate(703.133,124.502)"
       fill="none"
       stroke="#000000"
       stroke-width="9.6"
       stroke-linecap="round"
       stroke-linejoin="bevel"
       id="path18" />
    <path
       d="M 18.1166,0 C 18.4249,0.266278 2.75381,15.2859 1.16136,19.6695 0.763132,20.7658 -0.998387,28.6351 0.781765,27.6102"
       transform="translate(685.158,134.854)"
       fill="none"
       stroke="#000000"
       stroke-width="9.6"
       stroke-linecap="round"
       stroke-linejoin="bevel"
       id="path19" />
    <path
       d="M 0.222481,12.0258 C -1.33515,11.5777 5.76906,3.43306 6.55308,2.85672 14.0152,-2.6287 28.1497,-0.302383 29.5532,10.5982 c 0.5173,4.0179 0.0088,10.3484 -3.4039,13.1771 -0.8252,0.684 -9.3918,4.0779 -8.7165,5.2434"
       transform="translate(753.742,106.053)"
       fill="none"
       stroke="#000000"
       stroke-width="9.6"
       stroke-linecap="round"
       stroke-linejoin="bevel"
       id="path20" />
    <path
       d="m 0.346958,0 c -1.038488,0 0.547905,5.3518 0.937902,5.86503 2.33871,3.07771 6.01636,5.19957 9.81864,6.11457 5.9065,1.4214 13.3137,3.7942 18.4357,6.8634 0.5442,0.3261 3.164,2.842 2.3741,1.0482"
       transform="translate(771.017,133.597)"
       fill="none"
       stroke="#000000"
       stroke-width="9.6"
       stroke-linecap="round"
       stroke-linejoin="bevel"
       id="path21" />
    <path
       d="M 0,0 C 0.501642,0.45831 0.101835,0.14053 0,0"
       transform="translate(677.457,55.3245)"
       fill="none"
       stroke="#000000"
       stroke-width="7.2384"
       stroke-linecap="round"
       stroke-linejoin="bevel"
       id="path22" />
  </g>
</svg>
